<svg xmlns="http://www.w3.org/2000/svg" width="84" height="24" viewBox="0 0 84 24"><path d="M16.7 5.3c1.4 0 2.6-1.2 2.6-2.6 0-1.5-1.2-2.7-2.6-2.7-1.4 0-2.6 1.2-2.6 2.7 0 1.4 1.2 2.6 2.6 2.6" fill="#555"/><path d="M19.4 7H7.5v-.7c0-1.6 1.6-1.6 2.3-1.6.9 0 1.3.1 1.3.1V.5S10.3.3 9.2.3c-2.4 0-7 .7-7 6.1V7H0v4h2.2v8.4h-2v4h9.7v-4H7.5V11H14v8.4h-2v4h9.4v-4h-2V7zm20.2 0h-8.5v4h1.4l-1.8 5.9c-.4 1-.5 2.2-.5 2.2h-.1s-.1-1.2-.4-2.2L27.9 11h1.4V7h-8.5v4h1.8L27 23.4h6.3L37.8 11h1.8V7zm5.6 6.2c.2-1.3 1-2.4 2.5-2.4 1.2 0 2.1 1.1 2.1 2.4h-4.6zm10.1 1.4c0-4.6-2.7-7.9-7.4-7.9-5.2 0-8.3 3.7-8.3 8.5 0 4.3 3 8.5 8.7 8.5 4.3 0 6.9-2.2 6.9-2.2l-1.9-3.8s-2.2 1.5-4.5 1.5c-1.7 0-3.4-.9-3.8-3h10.2s.1-1.1.1-1.6zm22.8-3.8H78s.1-.3.1-.8v-.9c0-1.4-.8-2.1-2.3-2.1h-5v4h1.4c.5 0 .7.3.7.7v7.7h-2.1v4h9.7v-4h-2.2V17c0-2.9 1.4-4.9 4.4-4.9.7 0 1.1.1 1.1.1V6.8h-.6c-2.4 0-4.4 1.8-5.1 4m-14.3 0V9.1c0-1.4-.8-2.1-2.2-2.1h-5.1v4H58c.4 0 .7.3.7.7v7.7h-2.2v4h9.7v-4h-2.1V17c0-2.9 1.4-4.9 4.4-4.9.6 0 1.1.1 1.1.1V6.8h-.7c-2.4 0-4.4 1.8-5.1 4" fill="#555"/></svg>